/* XPM */
static char * map_xpm[] = {
"16 16 5 1",
" 	c #0000EC",
".	c #B5B0E4",
"+	c #003092",
"@	c #B03F00",
"#	c #1EFA25",
"     ....       ",
"    ..++..      ",
"   ..+@@++..    ",
"   .+@@#@+.     ",
"  ++@@###@++    ",
"  +@@####@.+    ",
" ++@####@@.+    ",
" +@@###@@.+     ",
" ++@###@@+      ",
"  +@####@++ .   ",
" .++@@@###@..   ",
" ++ ++@@@@@.    ",
" ... @@++++     ",
"   ..@@ ...     ",
"                ",
"                "};
